<svg xmlns="http://www.w3.org/2000/svg" width="512" height="512" viewBox="0 0 90 90">
	<path fill="#f0bc9e" d="M35.074,42.123c1.619,0.027,3.254,0.052,5.422,0.057v0.647c0,1.583,1.297,2.885,2.879,2.885h3.281
	c1.584,0,2.891-1.303,2.891-2.885V42.18c2.131-0.005,3.74-0.03,5.34-0.057c-0.09,0.235-0.184,0.464-0.297,0.693
	c-1.074,2.145-1.734,3.088-2.115,5.355c-0.521,3.093-0.24,4.566-1.891,7.79c-0.678,1.319-1.412,1.538-1.787,1.495
	c-0.375-0.041-0.688-0.26-0.688-1.025v-3.156c0-1.038-0.166-1.959-0.691-2.709c-0.531-0.755-1.469-1.187-2.438-1.187
	s-1.906,0.432-2.438,1.187c-0.527,0.75-0.693,1.672-0.693,2.709v3.156c0,0.766-0.313,0.984-0.688,1.025
	c-0.375,0.043-1.109-0.176-1.787-1.495c-1.65-3.224-1.369-4.697-1.891-7.79c-0.375-2.267-1.035-3.21-2.113-5.355
	C35.256,42.587,35.168,42.358,35.074,42.123z M64.652,38.661h3.27c0.469,0,0.813,0.339,0.813,0.807v3.36
	c0,0.467-0.344,0.812-0.813,0.812h-3.27c-0.469,0-0.818-0.344-0.818-0.812v-3.36C63.834,39,64.184,38.661,64.652,38.661z
	 M43.375,38.661h3.281c0.469,0,0.813,0.339,0.813,0.807v3.36c0,0.467-0.344,0.812-0.813,0.812h-3.281
	c-0.469,0-0.807-0.344-0.807-0.812v-3.36C42.568,39,42.906,38.661,43.375,38.661z M22.109,38.661h3.281
	c0.469,0,0.809,0.339,0.809,0.807v3.36c0,0.467-0.34,0.812-0.809,0.812h-3.281c-0.469,0-0.813-0.344-0.813-0.812v-3.36
	C21.297,39,21.641,38.661,22.109,38.661z M17.902,32.514c1.057,0,2.035,0.287,2.963,0.631c0.928,0.338,1.75,0.76,2.693,0.896
	c1.27,0.192,2.238-0.354,3.057-0.755c0.818-0.406,1.6-0.772,2.979-0.772c1.428,0,2.637,0.797,3.516,2.172
	c0.037,0.058,0.078,0.109,0.121,0.161c-0.355,0.819-0.605,1.704-0.734,2.631c-0.193,1.369,1.869,1.656,2.063,0.286
	c0.213-1.505,0.813-2.86,1.641-3.792c0.822-0.938,1.816-1.459,2.973-1.459c1.053,0,2.037,0.287,2.959,0.631
	c0.928,0.338,1.76,0.729,2.693,0.896c0.113,0.021,0.207,0.016,0.313,0c0.941-0.125,1.766-0.558,2.691-0.896
	c0.928-0.344,1.906-0.631,2.965-0.631c1.15,0,2.145,0.521,2.973,1.459c0.824,0.932,1.428,2.287,1.637,3.792
	c0.191,1.37,2.254,1.083,2.063-0.286c-0.125-0.896-0.371-1.755-0.703-2.552c0.057-0.073,0.113-0.145,0.16-0.24
	c0.887-1.375,2.094-2.172,3.516-2.172c1.387,0,2.168,0.366,2.984,0.772c0.818,0.4,1.781,0.947,3.053,0.755
	c0.943-0.136,1.771-0.558,2.697-0.896c0.922-0.344,1.906-0.631,2.959-0.631c1.297,0,2.4,0.662,3.26,1.819
	c0.74,0.984,1.23,2.333,1.375,3.791c-1.51,0.428-3.457,0.808-5.973,1.1c-0.131-1.469-1.371-2.646-2.871-2.646h-3.27
	c-1.584,0-2.891,1.308-2.891,2.891v0.386c-3.734,0.161-6.824,0.239-12.215,0.245v-0.63c0-1.583-1.307-2.891-2.891-2.891h-3.281
	c-1.582,0-2.879,1.308-2.879,2.891v0.63c-5.396-0.005-8.48-0.084-12.215-0.245v-0.386c0-1.583-1.307-2.891-2.891-2.891h-3.281
	c-1.5,0-2.738,1.177-2.863,2.646c-2.516-0.292-4.469-0.672-5.98-1.1c0.152-1.457,0.641-2.807,1.375-3.791
	C15.506,33.175,16.609,32.514,17.902,32.514z M17.902,30.442c-2.021,0-3.762,1.083-4.934,2.64c-0.9,1.208-1.488,2.704-1.723,4.317
	c-0.688-0.317-1.215-0.65-1.553-0.983C9.5,36.213,9.23,36.098,8.949,36.098c-0.934-0.005-1.396,1.135-0.725,1.787
	c0.818,0.817,1.959,1.453,3.463,1.968c0.059,0.032,0.115,0.046,0.178,0.063c1.844,0.614,4.234,1.052,7.354,1.401v1.511
	c0,1.583,1.309,2.885,2.891,2.885h3.281c1.584,0,2.891-1.303,2.891-2.885v-0.896c1.553,0.068,3.031,0.109,4.584,0.151
	c0.109,0.349,0.234,0.693,0.375,1.037c-0.975,1.916-1.6,2.906-1.959,5.052c-0.52,3.093-0.238,4.566-1.891,7.79
	c-0.676,1.319-1.41,1.538-1.785,1.495c-0.381-0.041-0.688-0.26-0.688-1.025v-3.156c0-1.038-0.168-1.964-0.703-2.719
	c-0.537-0.756-1.48-1.177-2.465-1.177s-1.926,0.421-2.469,1.177c-0.535,0.754-0.697,1.681-0.697,2.719v3.156
	c0,0.766-0.313,0.984-0.688,1.025c-0.375,0.043-1.109-0.176-1.787-1.495c-1.65-3.224-1.369-4.697-1.891-7.79
	c-0.379-2.267-1.041-3.21-2.113-5.355c-0.188-0.391-0.594-0.62-1.021-0.588c-0.744,0.057-1.193,0.859-0.844,1.525
	c1.125,2.235,1.604,2.771,1.938,4.754c0.479,2.855,0.271,4.85,2.088,8.396c0.934,1.824,2.412,2.776,3.855,2.621
	c1.438-0.156,2.547-1.5,2.547-3.094v-3.156c0-0.797,0.166-1.292,0.307-1.516c0.287-0.464,1.26-0.464,1.553,0
	c0.135,0.224,0.307,0.719,0.307,1.516v3.156c0,1.594,1.109,2.938,2.547,3.094c1.443,0.155,2.922-0.796,3.854-2.621
	c1.818-3.546,1.615-5.541,2.09-8.396c0.219-1.295,0.578-2.104,1.063-3.047c0.479,0.943,0.838,1.751,1.057,3.047
	c0.479,2.855,0.271,4.85,2.088,8.396c0.934,1.824,2.422,2.776,3.859,2.621c1.443-0.156,2.543-1.5,2.543-3.094v-3.156
	c0-0.797,0.172-1.297,0.313-1.521c0.25-0.412,1.197-0.443,1.473,0c0.141,0.229,0.309,0.724,0.309,1.521v3.156
	c0,1.594,1.109,2.938,2.547,3.094c1.441,0.155,2.922-0.796,3.854-2.621c1.818-3.546,1.615-5.541,2.088-8.396
	c0.225-1.328,0.6-2.145,1.1-3.113c0.5,0.968,0.869,1.785,1.094,3.113c0.479,2.855,0.271,4.85,2.088,8.396
	c0.938,1.824,2.422,2.776,3.859,2.621c1.443-0.156,2.543-1.5,2.543-3.094v-3.156c0-0.797,0.15-1.303,0.313-1.516
	c0.322-0.437,1.207-0.443,1.547,0c0.16,0.213,0.313,0.719,0.313,1.516v3.156c0,1.594,1.109,2.938,2.547,3.094
	c1.438,0.155,2.922-0.796,3.854-2.621c1.818-3.546,1.615-5.541,2.094-8.396c0.334-1.983,0.807-2.52,1.928-4.754
	c0.625-1.246-1.234-2.183-1.859-0.938c-1.078,2.145-1.74,3.088-2.121,5.355c-0.516,3.093-0.238,4.566-1.891,7.79
	c-0.672,1.319-1.406,1.538-1.785,1.495c-0.375-0.041-0.684-0.26-0.684-1.025v-3.156c0-1.038-0.166-1.964-0.703-2.719
	c-0.535-0.756-1.484-1.177-2.469-1.177c-0.979,0-1.926,0.421-2.463,1.177c-0.537,0.754-0.697,1.681-0.697,2.719v3.156
	c0,0.766-0.313,0.984-0.688,1.025c-0.381,0.043-1.105-0.176-1.781-1.495c-1.652-3.224-1.381-4.697-1.896-7.79
	c-0.365-2.172-1-3.158-2.006-5.131c0.131-0.317,0.246-0.636,0.35-0.958c1.584-0.036,3.084-0.083,4.662-0.151v0.896
	c0,1.583,1.307,2.885,2.891,2.885h3.27c1.584,0,2.896-1.303,2.896-2.885v-1.511c5.818-0.645,9.156-1.598,10.99-3.432
	c0.688-0.662,0.197-1.819-0.75-1.787c-0.277,0.006-0.531,0.121-0.719,0.318c-0.34,0.333-0.859,0.661-1.543,0.979
	c-0.238-1.614-0.832-3.105-1.734-4.313c-1.166-1.557-2.91-2.64-4.932-2.64c-1.422,0-2.662,0.38-3.678,0.755
	c-1.016,0.374-1.854,0.724-2.285,0.786c-0.559,0.083-0.949-0.136-1.824-0.567c-0.875-0.433-2.125-0.974-3.906-0.974
	c-1.963,0-3.65,1.02-4.822,2.515c-0.094-0.119-0.188-0.244-0.291-0.359c-1.141-1.292-2.73-2.156-4.531-2.156
	c-1.428,0-2.672,0.38-3.688,0.755c-0.943,0.35-1.672,0.641-2.125,0.734c-0.453-0.093-1.178-0.385-2.125-0.734
	c-1.016-0.375-2.262-0.755-3.684-0.755c-1.807,0-3.395,0.864-4.535,2.156c-0.084,0.099-0.168,0.203-0.25,0.307
	c-1.172-1.462-2.844-2.462-4.793-2.462c-1.775,0-3.025,0.541-3.9,0.974c-0.875,0.432-1.266,0.65-1.822,0.567
	c-0.434-0.063-1.266-0.412-2.281-0.786C20.574,30.822,19.328,30.442,17.902,30.442z" />
</svg>