<?xml version="1.0" encoding="UTF-8" standalone="no"?>
<svg width="64" height="64" viewBox="0 0 64 64" xmlns="http://www.w3.org/2000/svg">
    <path fill="#f0bc9e" d="M48.8299 32.9C48.8125 32.6963 48.7473 32.4996 48.6396 32.3258C48.5318 32.1521 48.3846 32.0062 48.2099 31.9L33.2099 23.26V14L38.5399 17.66C38.7719 17.8479 39.0633 17.9466 39.3617 17.9382C39.66 17.9299 39.9456 17.8151 40.1666 17.6146C40.3877 17.414 40.5297 17.141 40.567 16.8449C40.6043 16.5488 40.5344 16.2491 40.3699 16L33.0799 3.39C32.9611 3.21262 32.8004 3.06724 32.612 2.96672C32.4237 2.86619 32.2135 2.8136 31.9999 2.8136C31.7864 2.8136 31.5762 2.86619 31.3878 2.96672C31.1995 3.06724 31.0388 3.21262 30.9199 3.39L23.6299 16C23.4909 16.2455 23.4391 16.5307 23.4827 16.8094C23.5264 17.0881 23.663 17.3438 23.8704 17.535C24.0779 17.7262 24.3438 17.8416 24.6252 17.8625C24.9065 17.8834 25.1866 17.8085 25.4199 17.65L30.7499 14V23.27L15.7499 31.91C15.5942 32.0044 15.4602 32.1308 15.3568 32.2807C15.2533 32.4307 15.1829 32.6008 15.1499 32.78C15.0199 33.15 15.1499 50.65 15.1499 50.99C15.1499 51.2097 15.2082 51.4254 15.3189 51.6152C15.4296 51.805 15.5887 51.9619 15.7799 52.07L31.3699 61.07C31.5594 61.176 31.7729 61.2316 31.9899 61.2316C32.207 61.2316 32.4205 61.176 32.6099 61.07L48.1999 52.07C48.3916 51.964 48.5518 51.8092 48.6642 51.6213C48.7766 51.4333 48.8373 51.219 48.8399 51C48.7999 50.9 48.8799 33 48.8299 32.9ZM31.9999 6.52L35.4499 12.52C31.2999 9.74 32.6999 9.75 28.5499 12.52L31.9999 6.52ZM31.9999 35.52C32.3315 35.52 32.6494 35.3883 32.8838 35.1539C33.1182 34.9195 33.2499 34.6015 33.2499 34.27V26.17L45.0899 33L31.9999 40.56L18.9099 33L30.7499 26.17V34.25C30.7499 34.5815 30.8816 34.8995 31.1161 35.1339C31.3505 35.3683 31.6684 35.5 31.9999 35.5V35.52ZM17.6599 35.19L30.7499 42.74V57.83L17.6599 50.28V35.19ZM33.2499 57.83V42.72L46.3399 35.17V50.28L33.2499 57.83Z" />
</svg>
