<?xml version="1.0" encoding="UTF-8" standalone="no"?>
<svg id="stroke" xmlns="http://www.w3.org/2000/svg" viewBox="0 0 340 340">
    <title>11_teeth</title>
    <path fill="#f0bc9e" d="M23.835,126.409c1.138,17.49,2.888,27.373,5.525,38.532l0,.017,0,.019c14.54,59.138,52.021,86.907,80.9,99.788,30.318,13.522,57.062,13.857,59.543,13.857h.314c2.541,0,29.284-.336,59.6-13.857,28.883-12.881,66.364-40.65,80.9-99.788l0-.019.006-.017c2.637-11.159,5.525-21,5.525-38.532a7.951,7.951,0,0,0-.692-2.521c-1.189-1.735-29.855-42.7-93.929-61.428a27.2,27.2,0,0,0-22.859,3.626c-6.581,4.425-16.9,9.7-28.685,9.7s-22.1-5.275-28.685-9.7a27.205,27.205,0,0,0-22.859-3.626c-64.073,18.724-92.971,59.555-93.928,61.428A6.044,6.044,0,0,0,23.835,126.409Zm187.622-29.04a213.838,213.838,0,0,1-1.846,22.515,4.229,4.229,0,0,1-4.048,3.671c-10.5.4-19.6.526-25.381.561a4,4,0,0,0,.023,8h.025c5.841-.035,15.03-.162,25.638-.567a12.211,12.211,0,0,0,8.035-3.42,11.394,11.394,0,0,0,3.524,2,33.159,33.159,0,0,1-.034,13.478c-1.19-.019-31.737,1.123-47.394,9.176-15.656-8.053-46.189-9.185-47.391-9.167-1.041-4-.394-11.472-.036-13.487a11.378,11.378,0,0,0,3.523-2,12.216,12.216,0,0,0,8.036,3.42c10.608.405,19.8.532,25.638.567h.087A14.142,14.142,0,0,0,174,117.969v-23.7A283.081,283.081,0,0,1,211.457,97.369ZM174,232.576V210.892a3.931,3.931,0,0,1,3.9-3.916,159.52,159.52,0,0,0,27.994-2.67,5.432,5.432,0,0,1,6.271,4.06,89.273,89.273,0,0,1,1.807,17.948A193.564,193.564,0,0,1,174,232.576Zm-47.976-6.262a89.451,89.451,0,0,1,1.761-17.76,5.436,5.436,0,0,1,6.318-4.248,159.53,159.53,0,0,0,28,2.67,3.93,3.93,0,0,1,3.9,3.916v21.684A193.585,193.585,0,0,1,126.023,226.314Zm-89-63.718A197.615,197.615,0,0,1,32,128.473c3.66-1.953,7.393-3.844,11.239-5.631l.034-.016c1.8-.837,3.641-1.64,5.482-2.44,8.24,2.668,18.793,4.926,31.407,6.717a10.88,10.88,0,0,0,1.534.108,10.653,10.653,0,0,0,6.708-2.375,14.194,14.194,0,0,0,8.817,4.291c5.433.533,11.21,1,17.192,1.4-.256,1.816-.752,9.313.082,13.361a176.124,176.124,0,0,0-28.044,3.59,4,4,0,0,0,1.7,7.819,180.724,180.724,0,0,1,38-3.72c1.5.065,26.159,1.256,39.855,8.154v15.735a4,4,0,0,0,8,0V159.727c13.7-6.9,38.353-8.089,39.856-8.154,23.709.008,39.885,3.707,49.035,6.665-.233.463-2.459,6.641-2.071,9.277a12.614,12.614,0,0,0-6.923,3.957,63.617,63.617,0,0,1-6.854,6.578,11.554,11.554,0,0,0-3.9,6.251,12.065,12.065,0,0,0-7.422,1.384,93.175,93.175,0,0,1-15.076,6.564,13.141,13.141,0,0,0-7.11,5.752,13.357,13.357,0,0,0-9.123-1.557,151.366,151.366,0,0,1-26.564,2.532A11.873,11.873,0,0,0,170,202.021a11.868,11.868,0,0,0-7.852-3.045,151.357,151.357,0,0,1-26.564-2.532A13.366,13.366,0,0,0,126.46,198a13.142,13.142,0,0,0-7.11-5.753,93.261,93.261,0,0,1-15.076-6.563,12.06,12.06,0,0,0-7.422-1.386,11.555,11.555,0,0,0-3.9-6.25,63.721,63.721,0,0,1-6.855-6.578,12.608,12.608,0,0,0-6.922-3.957,12.742,12.742,0,0,0-1.37-7.889c-.9-1.673-1.722-3.41-2.454-5.162A11.8,11.8,0,0,0,64.448,147.2H58.686A11.755,11.755,0,0,0,47.4,155.478c-1.7,5.466-3.266,11.469-3.078,18.011A91.7,91.7,0,0,1,37.027,162.6Zm47.394-46.468a2.78,2.78,0,0,1-.842,2.308,2.71,2.71,0,0,1-2.295.746c-7.593-1.078-14.376-2.323-20.3-3.72q11-4.109,22.756-7.375C83.925,110.851,84.149,113.547,84.421,116.128ZM284.8,184.865a46.134,46.134,0,0,0-13.985-15.146,4.911,4.911,0,0,1-1.573-6.317c1.015-1.9,1.951-3.866,2.782-5.852a3.818,3.818,0,0,1,3.527-2.355h5.762a3.791,3.791,0,0,1,3.646,2.661C288.127,168.027,289.119,175.945,284.8,184.865Zm-229.6,0c-4.326-8.929-3.332-16.826-.161-27.009a3.792,3.792,0,0,1,3.647-2.661h5.762a3.818,3.818,0,0,1,3.527,2.355c.831,1.986,1.767,3.955,2.782,5.852a5.077,5.077,0,0,1-1.573,6.317A79.96,79.96,0,0,0,55.2,184.865Zm18.881-8.807a4.593,4.593,0,0,1,6.059.748,71.719,71.719,0,0,0,7.72,7.41,3.652,3.652,0,0,1,.955,4.245,114.893,114.893,0,0,0-5.751,19.574,147.622,147.622,0,0,1-16.647-11.8q-2.943-2.415-5.565-4.81S66.579,181.421,74.081,176.058ZM94.831,194.6a3.826,3.826,0,0,1,2.3-2.184,3.976,3.976,0,0,1,3.288.278,101.191,101.191,0,0,0,16.375,7.134,5.232,5.232,0,0,1,3.4,5.926,123.346,123.346,0,0,0-2.144,18.208,163.912,163.912,0,0,1-27.488-11.63A67.735,67.735,0,0,1,94.831,194.6Zm127.116,29.362a146.4,146.4,0,0,0-2.143-18.208,5.208,5.208,0,0,1,3.405-5.926,101.144,101.144,0,0,0,16.375-7.135,3.982,3.982,0,0,1,3.288-.277,3.817,3.817,0,0,1,2.274,2.145,67.378,67.378,0,0,1,4.286,17.773A163.83,163.83,0,0,1,221.947,223.962Zm34.978-15.921a83.683,83.683,0,0,0-5.742-19.58,3.552,3.552,0,0,1,.956-4.245,71.615,71.615,0,0,0,7.719-7.41,4.625,4.625,0,0,1,6.059-.748c.035.024.074.037.109.06.067.048.127.1.195.15a37.444,37.444,0,0,1,12.931,15.148q-2.626,2.391-5.57,4.815A147.619,147.619,0,0,1,256.925,208.041ZM292.6,155.478a11.756,11.756,0,0,0-11.285-8.283h-5.762a11.782,11.782,0,0,0-8.771,3.905c-7.959-2.7-21.649-6.182-41.272-7.219a56.151,56.151,0,0,0,.081-13.358c5.982-.4,11.759-.863,17.193-1.4a14.194,14.194,0,0,0,8.816-4.291,9.544,9.544,0,0,0,6.708,2.375,190.338,190.338,0,0,0,32.974-6.836c8.1,3.539,13.835,6.489,16.728,8.043a197.593,197.593,0,0,1-5.036,34.177,91.847,91.847,0,0,1-7.3,10.894C295.864,166.949,294.3,160.948,292.6,155.478Zm-33.883-36.3a2.7,2.7,0,0,1-2.3-.746,2.782,2.782,0,0,1-.841-2.308c0-.009,0-.017,0-.026.289-2.752.528-5.63.722-8.593,8.5,2.581,16.192,5.3,22.927,7.9C273.251,116.83,266.4,118.092,258.715,119.182Zm-11.125-3.59a6.276,6.276,0,0,1-5.59,5.573c-6.445.632-13.369,1.174-20.578,1.612a3.421,3.421,0,0,1-2.717-1.083,3.384,3.384,0,0,1-.906-2.768c0-.02,0-.039,0-.059.879-7.08,1.421-13.847,1.62-20.2,10.339,1.825,20.055,4.093,29.009,6.565C248.221,108.832,247.941,112.307,247.59,115.592ZM166,117.969a6.144,6.144,0,0,1-6.144,6.147h-.038c-5.782-.035-14.879-.16-25.381-.561a4.229,4.229,0,0,1-4.048-3.671c-.032-.24-1.682-16.095-1.844-22.514A283.027,283.027,0,0,1,166,94.268Zm-45.425-19.3c.2,6.366.744,13.164,1.626,20.258a3.444,3.444,0,0,1-3.623,3.851c-7.209-.438-14.133-.98-20.578-1.612a6.276,6.276,0,0,1-5.59-5.573c0-.038-.018-.072-.023-.109,0-.064,0-.127-.009-.191-.336-3.2-.606-6.574-.808-10.062C100.521,102.758,110.238,100.493,120.574,98.668ZM226.751,257.333c-29.647,13.3-56.421,13.3-56.779,13.288-.255.009-27.076.01-56.724-13.288-32.2-14.44-55.165-38.2-68.524-70.792a150.66,150.66,0,0,0,16.288,15.6C81.1,218.726,116.3,238.885,169.859,240.762c.039,0,.078,0,.116,0,.008,0,.016,0,.024,0s.016,0,.025,0c.038,0,.077,0,.116,0a202.267,202.267,0,0,0,48.321-7.381,3.964,3.964,0,0,0,1.128-.325A172.357,172.357,0,0,0,255.205,218.3a3.908,3.908,0,0,0,.892-.5,157.141,157.141,0,0,0,22.89-15.657,150.66,150.66,0,0,0,16.288-15.6C281.916,219.135,258.946,242.893,226.751,257.333ZM120.7,70.139a19.223,19.223,0,0,1,16.15,2.586C144.356,77.771,156.2,83.786,170,83.786s25.644-6.015,33.149-11.061A19.226,19.226,0,0,1,219.3,70.139c37.085,10.837,62.016,29.8,75.968,43.14C270.919,102.461,225.2,86.236,170,86.236S69.08,102.461,44.732,113.279C58.684,99.934,83.616,80.976,120.7,70.139Z" />
</svg>