<svg xmlns="http://www.w3.org/2000/svg" viewBox="0 0 100 100">
    <path fill="#f0bc9e" d="M77 81.3V50c0-14.9-12.1-27-27-27S23 35.1 23 50v31.3c-2.9.9-5 3.5-5 6.7 0 3.9 3.1 7 7 7h50c3.9 0 7-3.1 7-7 0-3.2-2.1-5.8-5-6.7zM27 75h46v6H27v-6zm23-48c12.7 0 23 10.3 23 23v21H27V50c0-12.7 10.3-23 23-23zm25 64H25c-1.7 0-3-1.3-3-3s1.3-3 3-3h50c1.7 0 3 1.3 3 3s-1.3 3-3 3zM48 15V7c0-1.1.9-2 2-2s2 .9 2 2v8c0 1.1-.9 2-2 2s-2-.9-2-2zM17 50c0 1.1-.9 2-2 2H7c-1.1 0-2-.9-2-2s.9-2 2-2h8c1.1 0 2 .9 2 2zm78 0c0 1.1-.9 2-2 2h-8c-1.1 0-2-.9-2-2s.9-2 2-2h8c1.1 0 2 .9 2 2zM78.6 33.5c-.6-1-.2-2.2.7-2.7l6.9-4c1-.6 2.2-.2 2.7.7.6 1 .2 2.2-.7 2.7l-6.9 4c-.3.2-.7.3-1 .3-.7 0-1.4-.4-1.7-1zM26.8 13.8c-.6-1-.2-2.2.7-2.7 1-.6 2.2-.2 2.7.7l4 6.9c.6 1 .2 2.2-.7 2.7-.3.2-.7.3-1 .3-.7 0-1.4-.4-1.7-1l-4-6.9zM11 27.5c.6-1 1.8-1.3 2.7-.7l6.9 4c1 .6 1.3 1.8.7 2.7-.4.6-1 1-1.7 1-.3 0-.7-.1-1-.3l-6.9-4c-.9-.5-1.2-1.7-.7-2.7zm54.8-8.8 4-6.9c.6-1 1.8-1.3 2.7-.7 1 .6 1.3 1.8.7 2.7l-4 6.9c-.4.6-1 1-1.7 1-.3 0-.7-.1-1-.3-1-.5-1.3-1.8-.7-2.7z" />
</svg>