<?xml version="1.0" encoding="UTF-8" standalone="no"?>
<svg xmlns="http://www.w3.org/2000/svg" viewBox="0 0 512 512">
    <title>Dental_veneer</title>
    <g id="Dental_veneer">
        <path fill="#f0bc9e" d="M486.2,75.61a33.76,33.76,0,0,0-24.81-11.09H50.61A33.76,33.76,0,0,0,25.8,75.61a41.55,41.55,0,0,0-10.7,31.17L21,192.58a41.56,41.56,0,0,0,4.76,16.74c-2.2,16.15-3.18,35.76-2.21,59.57a5,5,0,0,0,1.56,3.42c1,.94,10.52,9.35,41.68,16.65l.45.08a199.58,199.58,0,0,0,25.13,1.61c12.49,0,27-1.32,36.89-6.36-3.65,23.08-4.81,47.24-4.81,68.56a5,5,0,0,0,2.1,4.07c.64.46,16.2,11.24,62.8,15.48l.46,0c1.84,0,40.1-.14,61.68-10.56L287,444.45a5,5,0,0,0,4.59,3,4.9,4.9,0,0,0,2-.41,5,5,0,0,0,2.62-6.57L260,356.32a5,5,0,0,0,1.41-3.33c0-.32.07-2.81,0-6.95l22.75,37.89,21.51,60.23a5,5,0,0,0,4.71,3.32,4.92,4.92,0,0,0,1.68-.3,5,5,0,0,0,3-6.39l-4.7-13.14,5.15,8.57a5,5,0,1,0,8.57-5.15L293.3,379.6,268.8,311a10.75,10.75,0,0,0-4.93-5.74L259.65,303l8.51,3.52,71.68,138.29a5,5,0,0,0,8.88-4.6l-71.4-137.79-.06-.12-.43-.77a9.51,9.51,0,0,0-4.71-4.19l-14.57-6q-.51-3.53-1.06-6.91l.35-.23c6.67,3.38,24.17,10.36,59.5,13.57l.45,0c2,0,48.24-.17,67.68-14.07,9.87,4.73,23.95,6,36.12,6A199.77,199.77,0,0,0,445.72,288l.45-.08c31.15-7.3,40.7-15.71,41.68-16.65a5,5,0,0,0,1.56-3.42c1-24.19-.05-44-2.32-60.34a41.82,41.82,0,0,0,3.87-15l5.94-85.8A41.55,41.55,0,0,0,486.2,75.61ZM68.88,279.17C47,274,37,268.41,33.49,266.12a349.79,349.79,0,0,1,1.09-45.69c.44-4.66,1-9,1.62-13.16,8-52.51,29.36-61.92,29.9-62.14l.09,0c10.66-4.2,19.53-3.64,27.13,1.71,13.58,9.55,23.27,34.45,28.07,72.06.08.62.15,1.24.23,1.87q.5,4.11.89,8.13c1.66,16.75,2,31.88,2,40.86,0,1.95,0,3.89,0,5.8C110.11,282.73,80.09,280.7,68.88,279.17ZM249,228.86c1.26,11.37,1.9,21.82,2.21,30.14a159.48,159.48,0,0,0-10.94-30.14,99.49,99.49,0,0,0-5.67-10,73.08,73.08,0,0,0-9.1-11.56c-10-10.3-22-15.52-35.61-15.53-1.62,0-14.1.34-27.63,13.41a75.7,75.7,0,0,0-11.06,13.68,99.35,99.35,0,0,0-5.66,10,157.18,157.18,0,0,0-10.66,29q.57-15.7,2-29,.54-5.18,1.18-10c6.11-46.33,19.22-69.3,30.7-80.68,11-10.89,20.39-11.09,21-11.09h.14c11,0,20.26,4.09,28.45,12.49,17.08,17.54,25.4,50.12,29.43,79.28C248.2,222.25,248.61,225.59,249,228.86Zm2.29,107c.22,6.68.23,11.77.21,14.53a29.05,29.05,0,0,1-3.87,2.29c-15.55,7.82-45.62,9.7-57.53,9.73-34-3.12-50.22-9.77-55.57-12.47.11-24.52,1.71-45,4.28-62.07.52-3.48,1.09-6.83,1.69-10,4.15-22.14,10.05-37.85,16.33-49a81,81,0,0,1,6.59-10,61.43,61.43,0,0,1,5.29-6c11-10.89,20.39-11.09,21-11.09h.14c11,0,20.26,4.09,28.45,12.5a57.78,57.78,0,0,1,4,4.59,76,76,0,0,1,6.62,10c7.95,14.19,13.12,32.26,16.45,50.19q.74,3.88,1.34,7.76l-10.93-4.52-24.71-10.21a6.84,6.84,0,0,0-5.91,12.32l4.2,2.31,14.88,8.19,25.27,13.91c0,.07,0,.15,0,.23.68,7,1.13,13.65,1.42,19.48C251.09,331.14,251.19,333.6,251.26,335.87Zm15.79,0-6.2-10.34c-.16-2.73-.34-5.61-.57-8.61Zm111.37-60.14c-13.79,9.75-48.41,12-61.41,12-34-3.11-50.16-9.76-55.53-12.46,0-1.06,0-2.39,0-3.95v0c.18-15.81,1-29.89,2.27-42.43q.54-5.18,1.18-10c6.1-46.33,19.21-69.3,30.69-80.68,11-10.89,20.39-11.09,21-11.09h.13c11,0,20.27,4.09,28.45,12.49,17.08,17.54,25.4,50.12,29.44,79.28.47,3.39.88,6.73,1.24,10A423.89,423.89,0,0,1,378.42,275.72Zm101.09-10.61c-3.51,2.33-13.6,7.93-35.39,13.06-11.22,1.53-41.28,3.58-55.66-3.67a440.13,440.13,0,0,1,1.92-45.64c.29-3,.61-6,1-9l.12-1c4.76-38.17,14.5-63.41,28.2-73.06,7.59-5.35,16.47-5.9,27.13-1.71l.16.06c.08,0,8.52,3.37,16.9,19,6.47,12.1,10.49,27,12.86,42.6.7,4.53,1.25,9.13,1.68,13.73A357,357,0,0,1,479.51,265.11ZM450.44,134.77c-13.83-5.43-26.11-4.47-36.52,2.86-17.42,12.26-26.35,41.2-30.9,69.6-5.9-34.74-16.18-59.8-30.61-74.62-10-10.29-22-15.52-35.61-15.52-1.61,0-14.1.34-27.63,13.41-17.95,17.34-27.73,46.81-32.81,78.39-5.87-35.6-16.24-61.23-30.89-76.28-10-10.29-22-15.52-35.61-15.52-1.62,0-14.1.34-27.63,13.41-17.56,17-27.31,45.54-32.48,76.34-4.61-28-13.53-56.15-30.67-68.21-10.41-7.33-22.69-8.29-36.52-2.86-2.08.79-21.2,9.08-32,49.45l-5.47-79.13a31.49,31.49,0,0,1,8-23.66,23.88,23.88,0,0,1,17.5-7.91H461.39a23.88,23.88,0,0,1,17.5,7.91,31.49,31.49,0,0,1,8,23.66l-5.21,75.45C470.79,143.48,452.47,135.54,450.44,134.77Z" />
        
    </g>
</svg>