<svg xmlns="http://www.w3.org/2000/svg" data-name="Layer 1" viewBox="0 0 512 512">


    <path fill="#f0bc9e" d="M407.021 12h-16A8.018 8.018 0 0 0 383 20v7H354.271a8 8 0 0 0 0 16H383v5H354.271a8 8 0 0 0 0 16H383v5H354.271a8 8 0 0 0 0 16H383v5H354.271a8 8 0 0 0 0 16H383v5H354.271a8 8 0 0 0 0 16H383v5H354.271a8 8 0 0 0 0 16H383v12a8.018 8.018 0 0 0 8.021 8H400v14.778A49.875 49.875 0 0 1 381.7 221.8 7.776 7.776 0 0 0 379 228v92.954c-14 3.474-25 16.073-25 31.046V492a8.236 8.236 0 0 0 8.271 8h48A7.774 7.774 0 0 0 418 492V352a32.164 32.164 0 0 0-23-30.916V231.658a68.277 68.277 0 0 0 21-48.88v-16.27A28.092 28.092 0 0 0 435 140V40A28.014 28.014 0 0 0 407.021 12zM370 484V465h32v19zm32-132v97H370V352a16 16 0 0 1 32 0zm17-212a12 12 0 0 1-11.979 12H399V28h8.021A12 12 0 0 1 419 40zM293.061 55.6L84.98 55.564h0A7.869 7.869 0 0 0 77.111 64.4L110 378.705v.021a3.784 3.784 0 0 0 .022.722c.026.129.017.254.048.381.029.112.032.225.064.336.04.135.077.266.124.4.035.1.065.2.1.3.052.129.106.255.164.381.028.059.158.12.186.178L150 461.148V491.99a7.908 7.908 0 0 0 7.89 8l62.422.01h-.027a7.674 7.674 0 0 0 5.514-2.343A7.865 7.865 0 0 0 228 492V461.159l39.309-79.709c.029-.06.117-.124.145-.185.057-.122.144-.245.194-.37.041-.1.094-.206.13-.31.046-.13.1-.258.14-.391.033-.114.063-.23.092-.345s-.04-.246-.016-.372a3.657 3.657 0 0 0 .006-.725v0s.108-.009.109-.014l32.854-314.3a7.961 7.961 0 0 0-7.9-8.831zm-8.879 16l-2.047 19.619-186.23-.031L93.858 71.566zM253.05 369.92L124.99 369.9 97.575 107.186l182.89.029zm-37.419 80.656l-53.223-.009-31.78-64.67 116.784.022zM212 484l-46-.008V466.567l46 .008z" />
    <path fill="#f0bc9e" d="M236.578,136.155a8.061,8.061,0,0,0-8-8.07L149.449,128h0a8.122,8.122,0,0,0-8,8.106l.015,197.112a8.008,8.008,0,0,0,8,8.009l79.131.018v0a8,8,0,0,0,8-8ZM157.461,325.237l-.013-181.1,63.131.012.013,181.094Z" />

</svg>