<svg version="1.1" id="Layer_1" xmlns="http://www.w3.org/2000/svg" xmlns:xlink="http://www.w3.org/1999/xlink" x="0px" y="0px" width="100%" viewBox="0 0 700 700" enable-background="new 0 0 700 700" xml:space="preserve">
	
	
	<path fill="#CC694E" opacity="1.000000" stroke="none" d="
M350.072113,135.093430 
	C385.540344,118.900719 421.348328,103.608109 458.214417,90.747017 
	C484.743256,81.492172 511.606750,73.697464 539.102966,68.142822 
	C559.093445,64.104446 579.445007,62.700466 599.744507,64.184761 
	C618.700989,65.570847 636.448486,71.029358 650.080627,85.573692 
	C659.207214,95.310982 664.963623,107.018402 666.732422,119.944397 
	C668.561523,133.310837 669.468140,147.023224 668.719604,160.469650 
	C667.676025,179.214691 663.277222,197.547531 658.161621,215.669632 
	C649.008423,248.094925 636.990051,279.435577 622.525085,309.805847 
	C610.064453,335.967957 597.935669,362.374023 583.808105,387.636444 
	C561.809387,426.973907 538.525635,465.605347 515.225830,504.197540 
	C502.484619,525.301270 488.854004,545.885010 475.148773,566.385193 
	C459.719269,589.464600 443.754425,612.186157 427.042999,636.487793 
	C400.934418,598.992432 375.460907,562.409058 349.923401,525.125427 
	C349.921753,523.951477 349.984100,523.477844 350.348877,522.859680 
	C363.677979,504.101868 376.712311,485.493958 389.729706,466.874146 
	C409.404755,438.731293 429.090302,410.595703 448.730743,382.428680 
	C475.302795,344.320679 501.835846,306.185486 528.386841,268.062775 
	C534.522888,259.252441 540.663574,250.445358 546.945618,241.430923 
	C545.774475,240.658020 544.990417,240.072311 544.145935,239.593201 
	C516.726013,224.036804 489.601257,207.926651 461.797852,193.088272 
	C428.383636,175.255493 394.381134,158.525818 360.662964,141.260742 
	C357.032013,139.401550 353.597656,137.158447 350.072113,135.093430 
z" />
	<path fill="#FACDA9" opacity="1.000000" stroke="none" d="
M350.046448,523.004211 
	C349.984100,523.477844 349.921753,523.951477 349.835571,524.782471 
	C324.108795,561.894958 298.405853,598.650085 272.165741,636.173340 
	C265.650085,626.943970 259.831451,618.952515 254.274292,610.783325 
	C237.427475,586.017822 220.155746,561.519897 204.028976,536.291565 
	C183.531784,504.226471 163.229263,471.988037 144.255447,439.011536 
	C124.665138,404.963593 106.034264,370.311554 88.338486,335.240173 
	C70.577904,300.040375 55.323669,263.656708 43.862656,225.819931 
	C37.681087,205.412399 32.677937,184.782944 30.829725,163.426682 
	C29.128250,143.765961 29.349127,124.470451 36.578487,105.706749 
	C44.730408,84.548546 60.514389,72.442940 81.895164,67.063614 
	C99.320000,62.679581 117.033043,63.395889 134.766205,64.931526 
	C170.452148,68.021820 204.606094,77.791405 238.056824,89.768562 
	C266.388367,99.912781 294.107452,111.778618 322.023712,123.065193 
	C330.920929,126.662354 339.581512,130.844833 348.510223,135.209137 
	C343.640686,138.172333 338.579865,140.625229 333.586884,143.209152 
	C296.666870,162.315659 259.577087,181.105484 222.917496,200.699814 
	C200.531738,212.664871 178.894379,226.023499 156.730331,238.415421 
	C152.150574,240.975937 152.798080,243.043793 155.213104,246.458206 
	C170.820023,268.523743 186.374634,290.626526 201.870743,312.770050 
	C224.212357,344.695618 246.520859,376.644470 268.785950,408.623444 
	C293.231750,443.734528 317.580414,478.913269 342.073608,513.991150 
	C344.354889,517.258240 347.371338,520.012085 350.046448,523.004211 
z" />
	<path fill="#EEB692" opacity="1.000000" stroke="none" d="
M350.348877,522.859680 
	C347.371338,520.012085 344.354889,517.258240 342.073608,513.991150 
	C317.580414,478.913269 293.231750,443.734528 268.785950,408.623444 
	C246.520859,376.644470 224.212357,344.695618 201.870743,312.770050 
	C186.374634,290.626526 170.820023,268.523743 155.213104,246.458206 
	C152.798080,243.043793 152.150574,240.975937 156.730331,238.415421 
	C178.894379,226.023499 200.531738,212.664871 222.917496,200.699814 
	C259.577087,181.105484 296.666870,162.315659 333.586884,143.209152 
	C338.579865,140.625229 343.640686,138.172333 348.835541,135.362183 
	C349.180237,135.043121 349.359497,135.020615 349.805420,135.045761 
	C353.597656,137.158447 357.032013,139.401550 360.662964,141.260742 
	C394.381134,158.525818 428.383636,175.255493 461.797852,193.088272 
	C489.601257,207.926651 516.726013,224.036804 544.145935,239.593201 
	C544.990417,240.072311 545.774475,240.658020 546.945618,241.430923 
	C540.663574,250.445358 534.522888,259.252441 528.386841,268.062775 
	C501.835846,306.185486 475.302795,344.320679 448.730743,382.428680 
	C429.090302,410.595703 409.404755,438.731293 389.729706,466.874146 
	C376.712311,485.493958 363.677979,504.101868 350.348877,522.859680 
z" />
</svg>